<svg xmlns="http://www.w3.org/2000/svg" viewBox="0 0 220 220">
  <path d="M 31.3 21.7 H 188.7 V 121.5 Q 188.7 184.9 110.0 207.9 Q 31.3 184.9 31.3 121.5 Z" fill="#FFFFFF"/>
  <path d="M 36.8 27.9 H 183.2 V 120.7 Q 183.2 179.6 110.0 201.1 Q 36.8 179.6 36.8 120.7 Z" fill="#F2C94C" stroke="#151820" stroke-width="3"/>

  
  <g stroke="#151820" stroke-width="4.5" stroke-linejoin="round">
    <rect x="64" y="96" width="92" height="64" fill="#FDF6E2"/>
    <path d="M58 96 l8 -22 h88 l8 22 z" fill="#C6301A"/>
    <path d="M72 76 l-4 20 M88 75 l-2 21 M104 74 l0 22 M120 75 l2 21 M136 76 l4 20" stroke="#FFF9F0" stroke-width="5"/>
    <rect x="74" y="110" width="34" height="50" fill="#A8CBE4"/>
    <rect x="118" y="110" width="28" height="34" fill="#A8CBE4"/>
    <path d="M124 138 q4 -8 8 0 q2 -10 8 -4 q4 2 2 8 q-8 6 -18 -4 z" fill="#151820" stroke="none"/>
    <rect x="80" y="120" width="22" height="8" rx="2" fill="#F0762E" stroke-width="2.5"/>
    <rect x="80" y="134" width="22" height="8" rx="2" fill="#2E7D4F" stroke-width="2.5"/>
  </g>
</svg>