<svg xmlns="http://www.w3.org/2000/svg" viewBox="0 0 1600 300" preserveAspectRatio="xMidYMax slice" role="img" aria-label="Art-deco Manhattan skyline silhouette">
<g fill="#151820">
<rect x="0" y="210" width="70" height="90"/>
<rect x="60" y="180" width="40" height="120"/>
<rect x="80" y="154" width="18" height="26"/>
<rect x="77" y="150" width="24" height="5"/>
<path d="M78 150 L89 140 L100 150 Z"/>
<rect x="110" y="150" width="90" height="150"/>
<rect x="123" y="134" width="65" height="166"/>
<rect x="132" y="117" width="47" height="183"/>
<rect x="215" y="195" width="50" height="105"/>
<rect x="270" y="100" width="110" height="200"/>
<rect x="285" y="78" width="79" height="222"/>
<rect x="296" y="56" width="57" height="244"/>
<rect x="304" y="34" width="41" height="266"/>
<path d="M321 34 L325 -26 L329 34 Z"/>
<rect x="324" y="-42" width="2.4" height="18"/>
<rect x="395" y="170" width="60" height="130"/>
<rect x="429" y="144" width="18" height="26"/>
<rect x="426" y="140" width="24" height="5"/>
<path d="M427 140 L438 130 L449 140 Z"/>
<rect x="460" y="135" width="80" height="165"/>
<rect x="471" y="117" width="58" height="183"/>
<rect x="555" y="205" width="45" height="95"/>
<rect x="605" y="125" width="120" height="175"/>
<rect x="622" y="106" width="86" height="194"/>
<rect x="634" y="86" width="62" height="214"/>
<rect x="740" y="160" width="70" height="140"/>
<rect x="815" y="85" width="100" height="215"/>
<rect x="829" y="61" width="72" height="239"/>
<rect x="839" y="38" width="52" height="262"/>
<path d="M839 38 A26 26 0 0 1 891 38 Z"/>
<path d="M845 24 A20 20 0 0 1 885 24 Z"/>
<path d="M850 10 A15 15 0 0 1 880 10 Z"/>
<path d="M856 -4 A9 9 0 0 1 874 -4 Z"/>
<path d="M861 -13 L865 -63 L869 -13 Z"/>
<rect x="864" y="-79" width="2.4" height="18"/>
<rect x="930" y="180" width="55" height="120"/>
<rect x="961" y="154" width="18" height="26"/>
<rect x="958" y="150" width="24" height="5"/>
<path d="M959 150 L970 140 L981 150 Z"/>
<rect x="990" y="140" width="95" height="160"/>
<rect x="1003" y="122" width="68" height="178"/>
<rect x="1095" y="190" width="65" height="110"/>
<rect x="1165" y="150" width="90" height="150"/>
<rect x="1178" y="134" width="65" height="166"/>
<rect x="1260" y="224" width="340" height="9"/>
<path fill-rule="evenodd" d="M1345 300 V100 L1352 88 H1388 L1395 100 V300 Z M1360 158 V126 L1370 110 L1380 126 V158 Z M1360 220 V186 L1370 168 L1380 186 V220 Z"/>
<path fill-rule="evenodd" d="M1535 300 V100 L1542 88 H1578 L1585 100 V300 Z M1550 158 V126 L1560 110 L1570 126 V158 Z M1550 220 V186 L1560 168 L1570 186 V220 Z"/>
<path d="M1266 224 Q1318 216 1370 86 Q1465 190 1560 86 Q1578 216 1596 224" fill="none" stroke="#151820" stroke-width="4"/>
<line x1="1287" y1="216" x2="1287" y2="224" stroke="#151820" stroke-width="1.3"/>
<line x1="1308" y1="198" x2="1308" y2="224" stroke="#151820" stroke-width="1.3"/>
<line x1="1328" y1="170" x2="1328" y2="224" stroke="#151820" stroke-width="1.3"/>
<line x1="1349" y1="133" x2="1349" y2="224" stroke="#151820" stroke-width="1.3"/>
<line x1="1389" y1="105" x2="1389" y2="224" stroke="#151820" stroke-width="1.3"/>
<line x1="1408" y1="119" x2="1408" y2="224" stroke="#151820" stroke-width="1.3"/>
<line x1="1427" y1="130" x2="1427" y2="224" stroke="#151820" stroke-width="1.3"/>
<line x1="1446" y1="136" x2="1446" y2="224" stroke="#151820" stroke-width="1.3"/>
<line x1="1465" y1="138" x2="1465" y2="224" stroke="#151820" stroke-width="1.3"/>
<line x1="1484" y1="136" x2="1484" y2="224" stroke="#151820" stroke-width="1.3"/>
<line x1="1503" y1="130" x2="1503" y2="224" stroke="#151820" stroke-width="1.3"/>
<line x1="1522" y1="119" x2="1522" y2="224" stroke="#151820" stroke-width="1.3"/>
<line x1="1541" y1="105" x2="1541" y2="224" stroke="#151820" stroke-width="1.3"/>
<line x1="1578" y1="186" x2="1578" y2="224" stroke="#151820" stroke-width="1.3"/>
<line x1="1370" y1="92" x2="1336" y2="224" stroke="#151820" stroke-width="1.4" opacity="0.85"/>
<line x1="1370" y1="92" x2="1404" y2="224" stroke="#151820" stroke-width="1.4" opacity="0.85"/>
<line x1="1370" y1="92" x2="1310" y2="224" stroke="#151820" stroke-width="1.4" opacity="0.85"/>
<line x1="1370" y1="92" x2="1430" y2="224" stroke="#151820" stroke-width="1.4" opacity="0.85"/>
<line x1="1370" y1="92" x2="1282" y2="224" stroke="#151820" stroke-width="1.4" opacity="0.85"/>
<line x1="1370" y1="92" x2="1458" y2="224" stroke="#151820" stroke-width="1.4" opacity="0.85"/>
<line x1="1370" y1="92" x2="1252" y2="224" stroke="#151820" stroke-width="1.4" opacity="0.85"/>
<line x1="1370" y1="92" x2="1488" y2="224" stroke="#151820" stroke-width="1.4" opacity="0.85"/>
<line x1="1370" y1="92" x2="1220" y2="224" stroke="#151820" stroke-width="1.4" opacity="0.85"/>
<line x1="1370" y1="92" x2="1520" y2="224" stroke="#151820" stroke-width="1.4" opacity="0.85"/>
<line x1="1560" y1="92" x2="1526" y2="224" stroke="#151820" stroke-width="1.4" opacity="0.85"/>
<line x1="1560" y1="92" x2="1594" y2="224" stroke="#151820" stroke-width="1.4" opacity="0.85"/>
<line x1="1560" y1="92" x2="1500" y2="224" stroke="#151820" stroke-width="1.4" opacity="0.85"/>
<line x1="1560" y1="92" x2="1620" y2="224" stroke="#151820" stroke-width="1.4" opacity="0.85"/>
<line x1="1560" y1="92" x2="1472" y2="224" stroke="#151820" stroke-width="1.4" opacity="0.85"/>
<line x1="1560" y1="92" x2="1648" y2="224" stroke="#151820" stroke-width="1.4" opacity="0.85"/>
<line x1="1560" y1="92" x2="1442" y2="224" stroke="#151820" stroke-width="1.4" opacity="0.85"/>
<line x1="1560" y1="92" x2="1678" y2="224" stroke="#151820" stroke-width="1.4" opacity="0.85"/>
<line x1="1560" y1="92" x2="1410" y2="224" stroke="#151820" stroke-width="1.4" opacity="0.85"/>
<line x1="1560" y1="92" x2="1710" y2="224" stroke="#151820" stroke-width="1.4" opacity="0.85"/>
</g>
<g fill="#D9A13F" opacity="0.75">

</g>
</svg>
